<svg width="34" height="25" viewBox="0 0 34 25" fill="none" xmlns="http://www.w3.org/2000/svg">
<path d="M32.377 1V6.58789C30.9895 7.40233 29.8348 8.1695 28.9834 8.92383C28.0504 9.75048 27.3205 10.7007 27.2314 11.8271C27.1391 12.9965 27.7565 14.0128 28.6982 14.9033C29.5495 15.7082 30.7829 16.5227 32.377 17.3926V23.207H1.77246V17.4219C3.63887 16.508 5.15348 15.6584 6.24805 14.8398C7.39633 13.9811 8.34374 12.9694 8.42871 11.7461C8.51965 10.4353 7.60959 9.42454 6.44141 8.6377C5.35249 7.90426 3.78863 7.19183 1.77246 6.45898V1H32.377Z" stroke="#B81818" stroke-width="2"/>
<path d="M14.3581 10.8C13.4115 10.8 12.6448 10.5333 12.0581 10C11.4848 9.46667 11.1981 8.76 11.1981 7.88C11.1981 7.24 11.3448 6.67333 11.6381 6.18C11.9315 5.68667 12.3315 5.3 12.8381 5.02C13.3581 4.74 13.9515 4.6 14.6181 4.6C15.5648 4.6 16.3181 4.86667 16.8781 5.4C17.4515 5.93333 17.7381 6.64 17.7381 7.52C17.7381 8.14667 17.5915 8.70667 17.2981 9.2C17.0048 9.69333 16.6048 10.0867 16.0981 10.38C15.5915 10.66 15.0115 10.8 14.3581 10.8ZM12.4781 19L21.5781 4.8H23.2781L14.1981 19H12.4781ZM14.4181 9.56C14.9781 9.56 15.4315 9.37333 15.7781 9C16.1381 8.62667 16.3181 8.14667 16.3181 7.56C16.3181 7.04 16.1581 6.62667 15.8381 6.32C15.5315 6 15.1181 5.84 14.5981 5.84C14.0115 5.84 13.5315 6.03333 13.1581 6.42C12.7981 6.79333 12.6181 7.27333 12.6181 7.86C12.6181 8.38 12.7781 8.79333 13.0981 9.1C13.4315 9.40667 13.8715 9.56 14.4181 9.56ZM21.1781 19.14C20.2181 19.14 19.4515 18.8733 18.8781 18.34C18.3048 17.8067 18.0181 17.1 18.0181 16.22C18.0181 15.58 18.1581 15.0133 18.4381 14.52C18.7315 14.0267 19.1315 13.64 19.6381 13.36C20.1581 13.08 20.7581 12.94 21.4381 12.94C22.3848 12.94 23.1381 13.2067 23.6981 13.74C24.2715 14.2733 24.5581 14.98 24.5581 15.86C24.5581 16.4867 24.4115 17.0467 24.1181 17.54C23.8248 18.0333 23.4181 18.4267 22.8981 18.72C22.3915 19 21.8181 19.14 21.1781 19.14ZM21.2181 17.9C21.7781 17.9 22.2381 17.7133 22.5981 17.34C22.9581 16.9667 23.1381 16.4867 23.1381 15.9C23.1381 15.38 22.9781 14.9667 22.6581 14.66C22.3515 14.34 21.9315 14.18 21.3981 14.18C20.8115 14.18 20.3381 14.3733 19.9781 14.76C19.6181 15.1333 19.4381 15.6133 19.4381 16.2C19.4381 16.72 19.5981 17.1333 19.9181 17.44C20.2381 17.7467 20.6715 17.9 21.2181 17.9Z" fill="#B81818"/>
</svg>
