<svg xmlns="http://www.w3.org/2000/svg" width="793.701" height="1122.52" viewBox="0 0 595.276 841.89"><path d="M443.017 415.938h-69.232c8.955-5.797 17.275-13.044 24.82-21.913 14.18-16.694 21.285-39.884 21.285-69.513v-6.268c0-24.63-5.946-45.603-17.83-62.933-3.51-5.084-7.49-9.699-11.745-14.094h52.702zM151.855 241.217h52.709c-4.262 4.395-8.242 9.01-11.72 14.094-11.916 17.33-17.855 38.302-17.855 62.933v6.268c0 29.63 7.106 52.819 21.278 69.513 7.545 8.869 15.865 16.116 24.82 21.913h-69.232zM350.07 393.72c-4.998 4.285-10.607 7.928-16.804 10.976-22.414 11-49.246 11-71.637 0-6.19-3.048-11.798-6.69-16.828-10.976-17.298-14.815-25.979-35.787-25.979-62.957v-3.76c0-27.553 8.454-48.73 25.368-63.536 6.722-5.915 14.705-10.647 23.879-14.18 18.794-7.24 39.97-7.24 58.765 0 9.174 3.533 17.134 8.265 23.88 14.18 16.882 14.807 25.335 35.983 25.335 63.536v3.76c0 27.17-8.649 48.142-25.978 62.957zm-36.672-191.94c-5.5 0-10.749.297-15.95.689-5.218-.392-10.475-.69-15.943-.69H108.022v438.362h43.832V456.019h51.323c-6.189 8.782-9.393 20.588-9.393 35.708v148.414h43.833V496.726c0-12.935 3.533-22.97 10.639-30.045 7.106-7.098 17.964-10.662 32.56-10.662h33.248c14.619 0 25.454 3.564 32.552 10.662 7.106 7.075 10.647 17.11 10.647 30.045V640.14h43.856V491.727c0-15.12-3.235-26.926-9.425-35.708h51.323V640.14h43.833V201.779z" fill="#050807" data-name="Layer 1"/></svg>