<?xml version="1.0" encoding="UTF-8"?>
<svg version="1.1" xmlns="http://www.w3.org/2000/svg" width="1080" height="1080">
<path d="M0 0 C2.12024639 0.00564913 4.24048475 0.00846397 6.36073685 0.0110817 C26.91536786 0.04796432 47.19418982 0.49540989 67.58604813 3.31805801 C68.94240035 3.49747407 70.2988493 3.67616013 71.65538406 3.85419083 C141.42569723 13.10425742 209.4940548 35.15728228 270.58604813 70.31805801 C271.42538895 70.80097305 272.26472977 71.28388809 273.12950516 71.78143692 C297.99727483 86.19579151 321.72607487 102.51965973 343.8419075 120.87811661 C346.2977155 122.90560199 348.78927681 124.88811498 351.27354813 126.88055801 C356.54159108 131.19149407 361.5149712 135.788074 366.48448563 140.43524551 C369.03844329 142.82173054 371.64451641 145.13926734 374.27354813 147.44305801 C379.27095242 151.92263916 384.02073279 156.643587 388.77354813 161.38055801 C389.91473099 162.51485245 389.91473099 162.51485245 391.07896805 163.67206192 C395.23450863 167.83893785 399.22477907 172.09233006 403.06480789 176.55170059 C404.98752613 178.7842261 406.9731484 180.95605467 408.96104813 183.13055801 C413.69123166 188.38010292 418.1706234 193.8024202 422.58604813 199.31805801 C423.00080399 199.83319962 423.41555984 200.34834122 423.84288406 200.87909317 C484.07004838 275.81183673 523.54897561 366.00826179 538.83604813 468.69305801 C538.98727127 469.79496475 539.13849442 470.89687149 539.29430008 472.03216934 C539.77610371 475.78947593 540.19991809 479.54995613 540.58604813 483.31805801 C540.71685272 484.59078568 540.71685272 484.59078568 540.85029984 485.88922501 C542.56307897 503.16506915 542.95108768 520.38233431 542.90410614 537.73200989 C542.89845701 539.85225628 542.89564217 541.97249464 542.89302444 544.09274673 C542.85614182 564.64737775 542.40869625 584.92619971 539.58604813 605.31805801 C539.40663207 606.67441024 539.22794601 608.03085919 539.04991531 609.38739395 C529.79984872 679.15770712 507.74682386 747.22606469 472.58604813 808.31805801 C471.86167557 809.57706924 471.86167557 809.57706924 471.12266922 810.86151505 C456.70831463 835.72928472 440.38444641 859.45808476 422.02598953 881.57391739 C419.99850415 884.02972539 418.01599116 886.5212867 416.02354813 889.00555801 C411.71261207 894.27360097 407.11603214 899.24698109 402.46886063 904.21649551 C400.0823756 906.77045318 397.7648388 909.3765263 395.46104813 912.00555801 C390.98146698 917.0029623 386.26051914 921.75274268 381.52354813 926.50555801 C380.76735184 927.26634659 380.01115555 928.02713516 379.23204422 928.81097794 C375.06516829 932.96651851 370.81177608 936.95678896 366.35240555 940.79681778 C364.11988004 942.71953601 361.94805147 944.70515829 359.77354813 946.69305801 C354.52400322 951.42324155 349.10168594 955.90263329 343.58604813 960.31805801 C343.07090652 960.73281387 342.55576492 961.14756973 342.02501297 961.57489395 C267.09226941 1021.80205827 176.89584435 1061.2809855 74.21104813 1076.56805801 C72.55818802 1076.79489273 72.55818802 1076.79489273 70.8719368 1077.02630997 C67.11463021 1077.5081136 63.35415001 1077.93192798 59.58604813 1078.31805801 C58.31332047 1078.44886261 58.31332047 1078.44886261 57.01488113 1078.58230972 C39.73903699 1080.29508885 22.52177183 1080.68309757 5.17209625 1080.63611603 C3.05184986 1080.6304669 0.9316115 1080.62765205 -1.18864059 1080.62503433 C-21.74327161 1080.58815171 -42.02209357 1080.14070614 -62.41395187 1077.31805801 C-63.7703041 1077.13864196 -65.12675305 1076.9599559 -66.48328781 1076.7819252 C-136.25360098 1067.53185861 -204.32195855 1045.47883375 -265.41395187 1010.31805801 C-266.6729631 1009.59368546 -266.6729631 1009.59368546 -267.95740891 1008.85467911 C-292.82517858 994.44032452 -316.55397862 978.11645629 -338.66981125 959.75799942 C-341.12561925 957.73051404 -343.61718056 955.74800105 -346.10145187 953.75555801 C-351.36949483 949.44462196 -356.34287495 944.84804203 -361.31238937 940.20087051 C-363.86634704 937.81438549 -366.47242016 935.49684869 -369.10145187 933.19305801 C-374.09885616 928.71347687 -378.84863654 923.99252903 -383.60145187 919.25555801 C-384.74263474 918.12126358 -384.74263474 918.12126358 -385.9068718 916.96405411 C-390.06241237 912.79717818 -394.05268282 908.54378597 -397.89271164 904.08441544 C-399.81542987 901.85188993 -401.80105215 899.68006136 -403.78895187 897.50555801 C-408.51913541 892.25601311 -412.99852715 886.83369583 -417.41395187 881.31805801 C-417.82870773 880.80291641 -418.24346359 880.28777481 -418.67078781 879.75702286 C-478.89795213 804.82427929 -518.37687936 714.62785423 -533.66395187 611.94305801 C-533.81517502 610.84115128 -533.96639816 609.73924454 -534.12220383 608.60394669 C-534.60400746 604.84664009 -535.02782184 601.0861599 -535.41395187 597.31805801 C-535.54475647 596.04533035 -535.54475647 596.04533035 -535.67820358 594.74689102 C-537.39098271 577.47104688 -537.77899143 560.25378172 -537.73200989 542.90410614 C-537.72636076 540.78385975 -537.72354591 538.66362139 -537.72092819 536.54336929 C-537.68404557 515.98873828 -537.2366 495.70991632 -534.41395187 475.31805801 C-534.23453582 473.96170579 -534.05584976 472.60525684 -533.87781906 471.24872208 C-524.62775247 401.47840891 -502.57472761 333.41005134 -467.41395187 272.31805801 C-466.93103683 271.47871719 -466.4481218 270.63937637 -465.95057297 269.77460098 C-451.53621838 244.90683131 -435.21235015 221.17803127 -416.85389328 199.06219864 C-414.8264079 196.60639064 -412.84389491 194.11482933 -410.85145187 191.63055801 C-406.54051582 186.36251506 -401.94393589 181.38913494 -397.29676437 176.41962051 C-394.91027935 173.86566285 -392.59274255 171.25958973 -390.28895187 168.63055801 C-385.80937073 163.63315372 -381.08842289 158.88337335 -376.35145187 154.13055801 C-375.59525558 153.36976944 -374.8390593 152.60898087 -374.05994797 151.82513809 C-369.89307203 147.66959751 -365.63967983 143.67932707 -361.1803093 139.83929825 C-358.94778379 137.91658001 -356.77595522 135.93095774 -354.60145187 133.94305801 C-349.35190697 129.21287448 -343.92958969 124.73348274 -338.41395187 120.31805801 C-337.89881027 119.90330215 -337.38366867 119.4885463 -336.85291672 119.06122208 C-261.92017315 58.83405776 -171.72374809 19.35513053 -69.03895187 4.06805801 C-67.93704514 3.91683487 -66.8351384 3.76561172 -65.69984055 3.60980606 C-61.94253395 3.12800243 -58.18205376 2.70418805 -54.41395187 2.31805801 C-53.56546677 2.23085495 -52.71698166 2.14365189 -51.84278488 2.0538063 C-34.56694074 0.34102717 -17.34967558 -0.04698154 0 0 Z " fill="#C3C3C3" transform="translate(537.4139518737793,-0.3180580139160156)"/>
<path d="M0 0 C95.7 0 191.4 0 290 0 C290 110.88 290 221.76 290 336 C279.11 336 268.22 336 257 336 C257 289.14 257 242.28 257 194 C243.8 194 230.6 194 217 194 C218.98 197.465 218.98 197.465 221 201 C223.93156431 209.11214174 224.42387084 217.10441804 224.34057617 225.65332031 C224.34101425 226.85476181 224.34145233 228.05620331 224.34190369 229.29405212 C224.3401877 232.54753002 224.32527767 235.80060658 224.30418181 239.05400562 C224.28526239 242.46923346 224.28365268 245.8844715 224.28010559 249.29974365 C224.27082949 255.74866592 224.24627673 262.19743324 224.21605712 268.64628768 C224.18237386 275.99586002 224.16599232 283.34544027 224.15097082 290.69507074 C224.11972243 305.79681398 224.06476688 320.89835632 224 336 C213.11 336 202.22 336 191 336 C190.9906543 332.44750488 190.98130859 328.89500977 190.97167969 325.23486328 C190.93786978 313.48017566 190.88249786 301.7256437 190.81609726 289.97110176 C190.77637342 282.84629082 190.74394732 275.72158926 190.72900391 268.59667969 C190.71595266 262.38292955 190.68890023 256.16942078 190.64538693 249.95580661 C190.62284928 246.66898538 190.6091738 243.38252368 190.60811615 240.09561539 C190.60574219 236.41640573 190.5786251 232.73813004 190.54589844 229.05908203 C190.5509288 227.98229691 190.55595917 226.90551178 190.56114197 225.7960968 C190.44058662 217.00079229 188.50375054 208.36028545 182 202 C179.14158041 200.17388974 179.14158041 200.17388974 176 198.75 C174.453125 197.99976563 174.453125 197.99976563 172.875 197.234375 C167.80878738 195.05920763 163.34956507 194.85253361 157.8671875 194.8671875 C157.07531036 194.86623077 156.28343323 194.86527405 155.46755981 194.86428833 C153.79152344 194.8636086 152.11548442 194.86544848 150.43945312 194.86962891 C147.90488575 194.87493741 145.37049906 194.86969911 142.8359375 194.86328125 C123.78103206 194.33692369 123.78103206 194.33692369 107.14453125 202.5703125 C99.0614833 211.15231403 98.856665 222.90641564 98.79467773 234.05419922 C98.78477814 235.15722885 98.77487854 236.26025848 98.76467896 237.39671326 C98.73316047 241.03268304 98.70834466 244.66866588 98.68359375 248.3046875 C98.6630159 250.82960342 98.6420192 253.35451595 98.62062073 255.87942505 C98.5711175 261.83970905 98.52583001 267.80001557 98.48259836 273.76034749 C98.43312406 280.54878015 98.37824391 287.33716578 98.32291877 294.12555289 C98.2092813 308.08365967 98.10311646 322.04181174 98 336 C87.44 336 76.88 336 66 336 C65.95478548 320.11822609 65.9179715 304.2365035 65.89637566 288.35468388 C65.88608009 280.97984061 65.87205277 273.6050403 65.84912109 266.23022461 C65.82913442 259.79943275 65.81627107 253.368672 65.81182301 246.93784994 C65.80922454 243.53541709 65.80315316 240.13307324 65.78853989 236.73066902 C65.77398694 232.92464075 65.77202368 229.11879583 65.77294922 225.31274414 C65.76575867 224.19496078 65.75856812 223.07717743 65.75115967 221.92552185 C65.78038672 210.79194028 67.8155381 204.36892379 73 194 C59.8 194 46.6 194 33 194 C33 240.86 33 287.72 33 336 C22.11 336 11.22 336 0 336 C0 225.12 0 114.24 0 0 Z " fill="#FAFAF2" transform="translate(394,376)"/>
<path d="M0 0 C13.26317762 11.09776087 19.87592632 25.3292192 21.875 42.3125 C22.54144982 52.35848666 22.30809606 62.2141262 20.125 72.0625 C19.88970581 73.13238159 19.88970581 73.13238159 19.6496582 74.22387695 C17.42842024 83.26969544 12.86703752 90.28266629 6.875 97.3125 C6.30136719 97.99441406 5.72773437 98.67632813 5.13671875 99.37890625 C-5.74800486 111.28917127 -21.25470479 117.1110037 -37.1340332 117.83154297 C-54.8192486 118.14801712 -70.99273087 111.86542377 -83.90234375 99.671875 C-97.8526685 84.86344592 -100.68304012 66.68209822 -100.3046875 47.1171875 C-99.75085022 29.63370685 -94.31860405 15.59679448 -81.9296875 3.09765625 C-58.88658822 -18.46008646 -24.76956542 -18.66148802 0 0 Z " fill="#C3C3C3" transform="translate(578.125,420.6875)"/>
<path d="M0 0 C13.53 0 27.06 0 41 0 C41 44.55 41 89.1 41 135 C23.51 135 6.02 135 -12 135 C-8.59321088 131.59321088 -5.24746644 128.4523169 -1.625 125.3125 C3.50067257 120.67662925 7.37824879 115.86426019 11 110 C11.39832031 109.37222656 11.79664063 108.74445313 12.20703125 108.09765625 C20.45558809 94.4736354 21.57444342 78.64756937 21.4375 63.125 C21.43412628 62.38020386 21.43075256 61.63540771 21.42727661 60.86804199 C21.28882446 39.75876001 16.79452824 23.233398 3.69921875 6.3046875 C2 4 2 4 0 0 Z " fill="#C3C3C3" transform="translate(610,405)"/>
<path d="M0 0 C13.86 0 27.72 0 42 0 C40.02 2.31 38.04 4.62 36 7 C19.05613741 28.40944132 16.97264555 55.04272239 19.9453125 81.34350586 C22.66125514 101.73291617 32.72924573 118.01143987 48.6875 130.6875 C49.51636719 131.31011719 50.34523438 131.93273437 51.19921875 132.57421875 C51.79347656 133.04472656 52.38773437 133.51523437 53 134 C53 134.33 53 134.66 53 135 C35.51 135 18.02 135 0 135 C0 90.45 0 45.9 0 0 Z " fill="#C3C3C3" transform="translate(427,405)"/>
</svg>
