<?xml version="1.0" encoding="UTF-8" standalone="no"?>
<svg
   xmlns:dc="http://purl.org/dc/elements/1.1/"
   xmlns:cc="http://creativecommons.org/ns#"
   xmlns:rdf="http://www.w3.org/1999/02/22-rdf-syntax-ns#"
   xmlns:svg="http://www.w3.org/2000/svg"
   xmlns="http://www.w3.org/2000/svg"
   viewBox="0 0 1122.5197 793.70081"
   height="793.70081"
   width="1122.5197"
   xml:space="preserve"
   id="svg2"
   version="1.1"><metadata
     id="metadata8"><rdf:RDF><cc:Work
         rdf:about=""><dc:format>image/svg+xml</dc:format><dc:type
           rdf:resource="http://purl.org/dc/dcmitype/StillImage" /></cc:Work></rdf:RDF></metadata><defs
     id="defs6" /><g
     transform="matrix(1.3333333,0,0,-1.3333333,0,793.7008)"
     id="g10"><path
       id="path12"
       style="fill:#2b2b2b;fill-opacity:1;fill-rule:nonzero;stroke:none"
       d="m 49.4711,298.4944 h 16.5657 c 4.1417,0 7.3576,0.9794 9.6497,2.9387 2.2886,1.9593 3.4358,4.7373 3.4358,8.3273 v 0.4964 c 0,3.6451 -1.118,6.4448 -3.3551,8.4041 -2.2339,1.9625 -5.479,2.9427 -9.7304,2.9427 H 49.4711 Z M 43.674,268.8435 v 57.9758 h 22.9399 c 3.5892,0 6.7515,-0.6071 9.4858,-1.8204 2.7346,-1.2132 4.8867,-2.9684 6.4585,-5.2605 1.5758,-2.291 2.3613,-5.0655 2.3613,-8.3222 v -0.83 c 0,-3.9186 -0.9389,-6.9854 -2.8143,-9.1925 -1.8785,-2.2079 -4.0864,-3.7001 -6.6271,-4.4711 v -0.9935 c 1.9885,-0.059 3.6442,-0.6806 4.9714,-1.8649 1.3232,-1.1875 1.9843,-3.0515 1.9843,-5.5922 v -19.6285 h -5.7972 v 18.9663 c 0,1.7107 -0.4674,3.0382 -1.4071,3.9779 -0.9388,0.9357 -2.376,1.4071 -4.3061,1.4071 H 49.4711 V 268.8435 Z M 367.1422,327.0379 253.997,273.4305 v -3.4795 l 113.1452,53.6076 z M 758.5943,269.951 v 55.3473 h 11.4667 l 20.9517,-51.7105 h 1.0278 v 51.7105 h 5.7714 V 269.951 h -11.4628 l -20.8751,51.7912 h -1.0279 V 269.951 Z m -31.3112,4.1881 c 4.9538,0 8.8021,1.4922 11.5438,4.4709 2.7414,2.9758 4.1122,7.1535 4.1122,12.5299 v 12.9694 c 0,5.3765 -1.3708,9.5542 -4.1122,12.53 -2.7417,2.9789 -6.59,4.4699 -11.5438,4.4699 -4.9559,0 -8.8019,-1.491 -11.5424,-4.4699 -2.7417,-2.9758 -4.1125,-7.1535 -4.1125,-12.53 v -12.9694 c 0,-5.3764 1.3708,-9.5541 4.1125,-12.5299 2.7405,-2.9787 6.5865,-4.4709 11.5424,-4.4709 z m 0,-5.2956 c -6.5897,0 -11.8202,1.9116 -15.6952,5.7308 -3.8741,3.8233 -5.8119,9.3977 -5.8119,16.7264 v 12.6513 c 0,7.3253 1.9378,12.8999 5.8119,16.7232 3.875,3.8192 9.1055,5.7308 15.6952,5.7308 6.5361,0 11.7447,-1.9116 15.6157,-5.7308 3.875,-3.8233 5.8116,-9.3979 5.8116,-16.7232 v -12.6513 c 0,-7.3287 -1.9366,-12.9031 -5.8116,-16.7264 -3.871,-3.8192 -9.0796,-5.7308 -15.6157,-5.7308 z m -37.2396,56.4548 h 5.8521 V 269.951 h -5.8521 z M 658.8899,269.951 v 50.0507 h -18.1851 v 5.2966 h 42.2223 v -5.2966 H 664.742 V 269.951 Z m -41.6702,-1.1075 c -6.535,0 -11.755,1.9116 -15.6552,5.7308 -3.8999,3.8233 -5.8478,9.3977 -5.8478,16.7264 v 12.6513 c 0,7.3253 1.9479,12.8999 5.8478,16.7232 3.9002,3.8192 9.1202,5.7308 15.6552,5.7308 6.4851,0 11.4409,-1.8206 14.8663,-5.4572 3.4246,-3.6369 5.1392,-8.5638 5.1392,-14.7858 v -0.3949 h -5.771 v 0.5525 c 0,4.3756 -1.1597,7.9356 -3.4804,10.6773 -2.317,2.7374 -5.9029,4.1113 -10.7541,4.1113 -4.9011,0 -8.7358,-1.491 -11.5021,-4.4699 -2.7675,-2.9758 -4.1531,-7.1535 -4.1531,-12.53 v -12.9694 c 0,-5.3764 1.3856,-9.5541 4.1531,-12.5299 2.7663,-2.9787 6.601,-4.4709 11.5021,-4.4709 4.8512,0 8.4371,1.3853 10.7541,4.1528 2.3207,2.7675 3.4804,6.3122 3.4804,10.637 v 1.1843 h 5.771 v -1.0267 c 0,-6.222 -1.7146,-11.1489 -5.1392,-14.7858 -3.4254,-3.6368 -8.3812,-5.4572 -14.8663,-5.4572 z m -62.9359,1.1075 v 55.3473 h 33.7634 v -5.2966 h -27.9113 v -19.61 h 25.6961 v -5.2966 h -25.6961 v -19.8485 h 28.2263 v -5.2956 z m -41.5897,0 v 55.3473 h 5.8522 v -50.0517 h 28.5446 v -5.2956 z m -41.5893,0 v 55.3473 h 5.8521 v -50.0517 h 28.5435 v -5.2956 z m -31.3109,4.1881 c 4.9527,0 8.8018,1.4922 11.5435,4.4709 2.7417,2.9758 4.1125,7.1535 4.1125,12.5299 v 12.9694 c 0,5.3765 -1.3708,9.5542 -4.1125,12.53 -2.7417,2.9789 -6.5908,4.4699 -11.5435,4.4699 -4.957,0 -8.8019,-1.491 -11.5436,-4.4699 -2.7405,-2.9758 -4.1113,-7.1535 -4.1113,-12.53 v -12.9694 c 0,-5.3764 1.3708,-9.5541 4.1113,-12.5299 2.7417,-2.9787 6.5866,-4.4709 11.5436,-4.4709 z m 0,-5.2956 c -6.59,0 -11.8214,1.9116 -15.6955,5.7308 -3.8752,3.8233 -5.8116,9.3977 -5.8116,16.7264 v 12.6513 c 0,7.3253 1.9364,12.8999 5.8116,16.7232 3.8741,3.8192 9.1055,5.7308 15.6955,5.7308 6.5358,0 11.7405,-1.9116 15.6155,-5.7308 3.8741,-3.8233 5.8118,-9.3979 5.8118,-16.7232 v -12.6513 c 0,-7.3287 -1.9377,-12.9031 -5.8118,-16.7264 -3.875,-3.8192 -9.0797,-5.7308 -15.6155,-5.7308 z m -28.9208,38.8695 h -6.7657 v 3.2422 c 0,5.7941 -5.1353,10.4865 -11.4701,10.4865 h -3.9725 c -6.3165,0 -11.4381,-4.6822 -11.4381,-10.4575 v -26.8039 c 0,-5.7784 5.1216,-10.4607 11.4381,-10.4607 h 3.9725 c 6.3348,0 11.4701,4.6967 11.4701,10.4896 v 3.4141 h 6.7657 v -2.8471 c 0,-9.288 -8.2352,-16.8217 -18.3923,-16.8217 h -3.1436 c -10.374,0 -18.781,7.6913 -18.781,17.1802 v 24.9801 c 0,9.4889 8.407,17.1759 18.781,17.1759 h 3.1436 c 10.1571,0 18.3923,-7.5293 18.3923,-16.8173 z M 195.2719,269.951 v 55.3473 h 11.2255 l 15.736,-51.7105 h 1.0267 l 15.7357,51.7105 h 11.2297 V 269.951 h -5.6149 v 51.6296 h -1.0267 L 227.8471,269.951 h -10.2019 l -15.6549,51.6296 h -1.0267 V 269.951 Z m -31.3109,4.1881 c 4.9527,0 8.8021,1.4922 11.5435,4.4709 2.7417,2.9758 4.1114,7.1535 4.1114,12.5299 v 12.9694 c 0,5.3765 -1.3697,9.5542 -4.1114,12.53 -2.7414,2.9789 -6.5908,4.4699 -11.5435,4.4699 -4.9569,0 -8.805,-1.491 -11.5435,-4.4699 -2.7417,-2.9758 -4.1125,-7.1535 -4.1125,-12.53 v -12.9694 c 0,-5.3764 1.3708,-9.5541 4.1125,-12.5299 2.7385,-2.9787 6.5866,-4.4709 11.5435,-4.4709 z m 0,-5.2956 c -6.5908,0 -11.8213,1.9116 -15.6954,5.7308 -3.875,3.8233 -5.8116,9.3977 -5.8116,16.7264 v 12.6513 c 0,7.3253 1.9366,12.8999 5.8116,16.7232 3.8741,3.8192 9.1046,5.7308 15.6954,5.7308 6.5359,0 11.7405,-1.9116 15.6158,-5.7308 3.8741,-3.8233 5.8116,-9.3979 5.8116,-16.7232 v -12.6513 c 0,-7.3287 -1.9375,-12.9031 -5.8116,-16.7264 -3.8753,-3.8192 -9.0799,-5.7308 -15.6158,-5.7308 z m -51.1591,5.2956 c 4.9569,0 8.8018,1.4922 11.5435,4.4709 2.7417,2.9758 4.1125,7.1535 4.1125,12.5299 v 12.9694 c 0,5.3765 -1.3708,9.5542 -4.1125,12.53 -2.7417,2.9789 -6.5866,4.4699 -11.5435,4.4699 -4.9527,0 -8.8022,-1.491 -11.5435,-4.4699 -2.7409,-2.9758 -4.1114,-7.1535 -4.1114,-12.53 v -12.9694 c 0,-5.3764 1.3705,-9.5541 4.1114,-12.5299 2.7413,-2.9787 6.5908,-4.4709 11.5435,-4.4709 z m 0,-5.2956 c -6.59,0 -11.8213,1.9116 -15.6954,5.7308 -3.8753,3.8233 -5.8085,9.3977 -5.8085,16.7264 v 12.6513 c 0,7.3253 1.9332,12.8999 5.8085,16.7232 3.8741,3.8192 9.1054,5.7308 15.6954,5.7308 6.5358,0 11.7445,-1.9116 15.6155,-5.7308 3.8741,-3.8233 5.8119,-9.3979 5.8119,-16.7232 v -12.6513 c 0,-7.3287 -1.9378,-12.9031 -5.8119,-16.7264 -3.871,-3.8192 -9.0797,-5.7308 -15.6155,-5.7308" /></g></svg>